<svg width="20" height="20" viewBox="0 0 20 20" fill="none" xmlns="http://www.w3.org/2000/svg">
<path fill-rule="evenodd" clip-rule="evenodd" d="M19.7748 18.6875L14.9656 13.8793C17.8613 10.4028 17.5104 5.2637 14.1691 2.21308C10.8278 -0.837536 5.678 -0.720499 2.47874 2.47877C-0.72053 5.67803 -0.837568 10.8278 2.21305 14.1691C5.26367 17.5104 10.4028 17.8613 13.8793 14.9656L18.6875 19.7748C18.9877 20.0751 19.4745 20.0751 19.7748 19.7748C20.075 19.4746 20.075 18.9878 19.7748 18.6875ZM1.55802 8.47362C1.55802 4.65426 4.65423 1.55805 8.47359 1.55805C12.2929 1.55805 15.3892 4.65426 15.3892 8.47362C15.3892 12.293 12.2929 15.3892 8.47359 15.3892C4.65598 15.385 1.56226 12.2912 1.55802 8.47362Z" fill="#0D141C"/>
</svg>
