<svg width="23" height="17" viewBox="0 0 23 17" fill="none" xmlns="http://www.w3.org/2000/svg">
<path fill-rule="evenodd" clip-rule="evenodd" d="M22.6911 9.81145C22.3524 10.0655 21.8719 9.99683 21.6179 9.65814C20.6808 8.39865 19.2014 7.65894 17.6316 7.66503C17.3235 7.66501 17.0452 7.48041 16.9254 7.19646C16.845 7.00592 16.845 6.79099 16.9254 6.60045C17.0452 6.3165 17.3235 6.13191 17.6316 6.13188C18.8267 6.13177 19.8226 5.21633 19.923 4.02548C20.0235 2.83463 19.1951 1.76528 18.0169 1.56495C16.8388 1.36462 15.7035 2.10008 15.4047 3.25721C15.2989 3.66735 14.8806 3.91403 14.4705 3.80819C14.0603 3.70234 13.8136 3.28406 13.9195 2.87392C14.3289 1.28982 15.6987 0.140239 17.3298 0.0118905C18.9609 -0.116458 20.4936 0.804725 21.1457 2.3053C21.7979 3.80588 21.4256 5.55495 20.2188 6.65986C21.2612 7.11118 22.1673 7.82737 22.8473 8.73729C22.9692 8.90035 23.0213 9.10525 22.992 9.30677C22.9627 9.5083 22.8544 9.68988 22.6911 9.81145ZM17.5282 15.7141C17.6792 15.9517 17.6878 16.2531 17.5506 16.4989C17.4134 16.7448 17.1524 16.8957 16.8709 16.8919C16.5893 16.8881 16.3325 16.7302 16.202 16.4807C15.2195 14.817 13.4311 13.7963 11.499 13.7963C9.56691 13.7963 7.77857 14.817 6.79606 16.4807C6.66554 16.7302 6.40874 16.8881 6.12718 16.8919C5.84563 16.8957 5.58465 16.7448 5.44742 16.4989C5.3102 16.2531 5.31882 15.9517 5.46988 15.7141C6.21308 14.4372 7.34627 13.4323 8.70292 12.8471C7.13767 11.6487 6.51018 9.58605 7.14285 7.71899C7.77553 5.85192 9.52767 4.59565 11.499 4.59565C13.4704 4.59565 15.2225 5.85192 15.8552 7.71899C16.4879 9.58605 15.8604 11.6487 14.2951 12.8471C15.6518 13.4323 16.785 14.4372 17.5282 15.7141ZM11.499 12.2645C13.1925 12.2645 14.5653 10.8917 14.5653 9.19819C14.5653 7.50471 13.1925 6.13188 11.499 6.13188C9.80554 6.13188 8.4327 7.50471 8.4327 9.19819C8.4327 10.8917 9.80554 12.2645 11.499 12.2645ZM6.13297 6.89846C6.13297 6.47509 5.78976 6.13188 5.36639 6.13188C4.17131 6.13177 3.17547 5.21633 3.075 4.02548C2.97453 2.83463 3.80292 1.76528 4.98109 1.56495C6.15926 1.36462 7.29453 2.10008 7.5933 3.25721C7.69914 3.66735 8.11743 3.91403 8.52757 3.80819C8.93771 3.70234 9.18439 3.28406 9.07855 2.87392C8.66916 1.28982 7.29936 0.140239 5.66825 0.0118905C4.03714 -0.116458 2.5044 0.804725 1.85229 2.3053C1.20017 3.80588 1.57247 5.55495 2.77919 6.65986C1.73787 7.1116 0.832765 7.82776 0.153659 8.73729C-0.100628 9.07598 -0.0322003 9.55669 0.306495 9.81097C0.645191 10.0653 1.1259 9.99683 1.38018 9.65814C2.31719 8.39865 3.7966 7.65894 5.36639 7.66503C5.78976 7.66503 6.13297 7.32183 6.13297 6.89846Z" fill="#0D141C"/>
</svg>
